<svg xmlns="http://www.w3.org/2000/svg" xmlns:xlink="http://www.w3.org/1999/xlink" width="160" height="80" version="1.1" viewBox="0 0 160 80"><g fill="none" fill-rule="evenodd" stroke="none" stroke-width="1"><g><rect width="160" height="80" x="0" y="0" fill="#FFF" fill-opacity=".082"/><rect width="120" height="8" x="40" y="72" fill="#000" fill-opacity=".165"/><g><rect width="40" height="80" x="0" y="0" fill="#000" fill-opacity=".162"/><rect width="24" height="4" x="4" y="4" fill="#FFF" fill-opacity=".08"/><rect width="16" height="4" x="4" y="12" fill="#FFF" fill-opacity=".08"/><rect width="30" height="4" x="4" y="20" fill="#FFF" fill-opacity=".08"/><rect width="21" height="4" x="4" y="28" fill="#FFF" fill-opacity=".08"/><rect width="24" height="4" x="4" y="36" fill="#FFF" fill-opacity=".08"/></g><g fill="#000" fill-opacity=".165" transform="translate(40.000000, 0.000000)"><rect width="60" height="8" x="60" y="0"/><rect width="30" height="8" x="0" y="0"/></g><path fill="#BB263A" d="M140,0 L160,0 L160,80 L20,80 L140,0 Z"/><path fill="#FF5F75" d="M128,8 L160,8 L160,72 L39.984375,72 L39.984375,66.6474609 L128,8 Z"/></g></g></svg>